<svg width="101" height="100" viewBox="0 0 101 100" fill="none" xmlns="http://www.w3.org/2000/svg">
<g clip-path="url(#clip0_1057_576)">
<circle cx="50.6667" cy="50" r="50" stroke="url(#paint0_linear_1057_576)" stroke-width="1.2"/>
<path d="M53.8001 36.6667H47.5334C46.1468 36.6667 45.0134 37.7867 45.0134 39.1734V40.4267C45.0134 41.8134 46.1334 42.9334 47.5201 42.9334H53.8001C55.1868 42.9334 56.3068 41.8134 56.3068 40.4267V39.1734C56.3201 37.7867 55.1868 36.6667 53.8001 36.6667Z" fill="url(#paint1_linear_1057_576)"/>
<path d="M57.6535 40.4266C57.6535 42.5466 55.9201 44.28 53.8001 44.28H47.5335C45.4135 44.28 43.6801 42.5466 43.6801 40.4266C43.6801 39.68 42.8801 39.2133 42.2135 39.56C40.3335 40.56 39.0535 42.5466 39.0535 44.8266V57.3733C39.0535 60.6533 41.7335 63.3333 45.0135 63.3333H56.3201C59.6001 63.3333 62.2801 60.6533 62.2801 57.3733V44.8266C62.2801 42.5466 61.0001 40.56 59.1201 39.56C58.4535 39.2133 57.6535 39.68 57.6535 40.4266ZM51.1735 56.6H45.3335C44.7868 56.6 44.3335 56.1466 44.3335 55.6C44.3335 55.0533 44.7868 54.6 45.3335 54.6H51.1735C51.7201 54.6 52.1735 55.0533 52.1735 55.6C52.1735 56.1466 51.7201 56.6 51.1735 56.6ZM54.6668 51.2666H45.3335C44.7868 51.2666 44.3335 50.8133 44.3335 50.2666C44.3335 49.72 44.7868 49.2666 45.3335 49.2666H54.6668C55.2135 49.2666 55.6668 49.72 55.6668 50.2666C55.6668 50.8133 55.2135 51.2666 54.6668 51.2666Z" fill="url(#paint2_linear_1057_576)"/>
</g>
<defs>
<linearGradient id="paint0_linear_1057_576" x1="0.666748" y1="50" x2="100.667" y2="50" gradientUnits="userSpaceOnUse">
<stop stop-color="#0A9C93" stop-opacity="0.4"/>
<stop offset="0.4" stop-color="#0A9C93" stop-opacity="0.02"/>
<stop offset="0.6" stop-color="#0A9C93" stop-opacity="0.02"/>
<stop offset="1" stop-color="#0A9C93" stop-opacity="0.4"/>
</linearGradient>
<linearGradient id="paint1_linear_1057_576" x1="50.6602" y1="36.6667" x2="50.6602" y2="42.9334" gradientUnits="userSpaceOnUse">
<stop stop-color="#4FD2CA"/>
<stop offset="1" stop-color="#0A9C93"/>
</linearGradient>
<linearGradient id="paint2_linear_1057_576" x1="50.6668" y1="39.4434" x2="50.6668" y2="63.3333" gradientUnits="userSpaceOnUse">
<stop stop-color="#4FD2CA"/>
<stop offset="1" stop-color="#0A9C93"/>
</linearGradient>
<clipPath id="clip0_1057_576">
<rect x="0.666748" width="100" height="100" rx="50" fill="white"/>
</clipPath>
</defs>
</svg>
