<svg width="101" height="100" viewBox="0 0 101 100" fill="none" xmlns="http://www.w3.org/2000/svg">
<g clip-path="url(#clip0_1057_473)">
<circle cx="50.3333" cy="50" r="50" stroke="url(#paint0_linear_1057_473)" stroke-width="1.2"/>
<path d="M50.3333 36.6667C46.84 36.6667 44 39.5067 44 43.0001C44 46.4267 46.68 49.2001 50.1733 49.3201C50.28 49.3067 50.3867 49.3067 50.4667 49.3201C50.4933 49.3201 50.5067 49.3201 50.5333 49.3201C50.5467 49.3201 50.5467 49.3201 50.56 49.3201C53.9733 49.2001 56.6533 46.4267 56.6667 43.0001C56.6667 39.5067 53.8267 36.6667 50.3333 36.6667Z" fill="url(#paint1_linear_1057_473)"/>
<path d="M57.1065 52.8666C53.3865 50.3866 47.3199 50.3866 43.5732 52.8666C41.8799 53.9999 40.9465 55.5333 40.9465 57.1733C40.9465 58.8133 41.8799 60.3333 43.5599 61.4533C45.4265 62.7066 47.8799 63.3333 50.3332 63.3333C52.7865 63.3333 55.2399 62.7066 57.1065 61.4533C58.7865 60.3199 59.7199 58.7999 59.7199 57.1466C59.7065 55.5066 58.7865 53.9866 57.1065 52.8666ZM52.9999 58.1733H51.3332V59.8399C51.3332 60.3866 50.8799 60.8399 50.3332 60.8399C49.7865 60.8399 49.3332 60.3866 49.3332 59.8399V58.1733H47.6665C47.1199 58.1733 46.6665 57.7199 46.6665 57.1733C46.6665 56.6266 47.1199 56.1733 47.6665 56.1733H49.3332V54.5066C49.3332 53.9599 49.7865 53.5066 50.3332 53.5066C50.8799 53.5066 51.3332 53.9599 51.3332 54.5066V56.1733H52.9999C53.5465 56.1733 53.9999 56.6266 53.9999 57.1733C53.9999 57.7199 53.5465 58.1733 52.9999 58.1733Z" fill="url(#paint2_linear_1057_473)"/>
</g>
<defs>
<linearGradient id="paint0_linear_1057_473" x1="0.333252" y1="50" x2="100.333" y2="50" gradientUnits="userSpaceOnUse">
<stop stop-color="#0A9C93" stop-opacity="0.4"/>
<stop offset="0.4" stop-color="#0A9C93" stop-opacity="0.02"/>
<stop offset="0.6" stop-color="#0A9C93" stop-opacity="0.02"/>
<stop offset="1" stop-color="#0A9C93" stop-opacity="0.4"/>
</linearGradient>
<linearGradient id="paint1_linear_1057_473" x1="50.3333" y1="36.6667" x2="50.3333" y2="49.3201" gradientUnits="userSpaceOnUse">
<stop stop-color="#4FD2CA"/>
<stop offset="1" stop-color="#0A9C93"/>
</linearGradient>
<linearGradient id="paint2_linear_1057_473" x1="50.3332" y1="51.0066" x2="50.3332" y2="63.3333" gradientUnits="userSpaceOnUse">
<stop stop-color="#4FD2CA"/>
<stop offset="1" stop-color="#0A9C93"/>
</linearGradient>
<clipPath id="clip0_1057_473">
<rect x="0.333252" width="100" height="100" rx="50" fill="white"/>
</clipPath>
</defs>
</svg>
