<svg width="100" height="100" viewBox="0 0 100 100" fill="none" xmlns="http://www.w3.org/2000/svg">
<g clip-path="url(#clip0_1057_935)">
<circle cx="50" cy="50" r="50" stroke="url(#paint0_linear_1057_935)" stroke-width="1.2"/>
<path d="M51 55.2268H51.8667C52.7333 55.2268 53.4533 54.4534 53.4533 53.5201C53.4533 52.3601 53.04 52.1334 52.36 51.8934L51.0133 51.4268V55.2268H51Z" fill="url(#paint1_linear_1057_935)"/>
<path d="M49.9599 36.5332C42.5999 36.5599 36.6399 42.5466 36.6666 49.9066C36.6933 57.2666 42.6799 63.2266 50.0399 63.1999C57.3999 63.1732 63.3599 57.1866 63.3333 49.8266C63.3066 42.4666 57.3199 36.5199 49.9599 36.5332ZM53.0133 49.9999C54.0533 50.3599 55.4533 51.1332 55.4533 53.5199C55.4533 55.5732 53.8399 57.2266 51.8666 57.2266H50.9999V57.9999C50.9999 58.5466 50.5466 58.9999 49.9999 58.9999C49.4533 58.9999 48.9999 58.5466 48.9999 57.9999V57.2266H48.5199C46.3333 57.2266 44.5599 55.3866 44.5599 53.1199C44.5599 52.5732 45.0133 52.1199 45.5599 52.1199C46.1066 52.1199 46.5599 52.5732 46.5599 53.1199C46.5599 54.2799 47.4399 55.2266 48.5199 55.2266H48.9999V50.7199L46.9866 49.9999C45.9466 49.6399 44.5466 48.8666 44.5466 46.4799C44.5466 44.4266 46.1599 42.7732 48.1333 42.7732H48.9999V41.9999C48.9999 41.4532 49.4533 40.9999 49.9999 40.9999C50.5466 40.9999 50.9999 41.4532 50.9999 41.9999V42.7732H51.4799C53.6666 42.7732 55.4399 44.6132 55.4399 46.8799C55.4399 47.4266 54.9866 47.8799 54.4399 47.8799C53.8933 47.8799 53.4399 47.4266 53.4399 46.8799C53.4399 45.7199 52.5599 44.7732 51.4799 44.7732H50.9999V49.2799L53.0133 49.9999Z" fill="url(#paint2_linear_1057_935)"/>
<path d="M46.5601 46.4934C46.5601 47.6534 46.9734 47.8801 47.6534 48.1201L49.0001 48.5868V44.7734H48.1334C47.2667 44.7734 46.5601 45.5468 46.5601 46.4934Z" fill="url(#paint3_linear_1057_935)"/>
</g>
<defs>
<linearGradient id="paint0_linear_1057_935" x1="0" y1="50" x2="100" y2="50" gradientUnits="userSpaceOnUse">
<stop stop-color="#0A9C93" stop-opacity="0.4"/>
<stop offset="0.4" stop-color="#0A9C93" stop-opacity="0.02"/>
<stop offset="0.6" stop-color="#0A9C93" stop-opacity="0.02"/>
<stop offset="1" stop-color="#0A9C93" stop-opacity="0.4"/>
</linearGradient>
<linearGradient id="paint1_linear_1057_935" x1="52.2267" y1="51.4268" x2="52.2267" y2="55.2268" gradientUnits="userSpaceOnUse">
<stop stop-color="#4FD2CA"/>
<stop offset="1" stop-color="#0A9C93"/>
</linearGradient>
<linearGradient id="paint2_linear_1057_935" x1="49.9999" y1="36.5332" x2="49.9999" y2="63.2" gradientUnits="userSpaceOnUse">
<stop stop-color="#4FD2CA"/>
<stop offset="1" stop-color="#0A9C93"/>
</linearGradient>
<linearGradient id="paint3_linear_1057_935" x1="47.7801" y1="44.7734" x2="47.7801" y2="48.5868" gradientUnits="userSpaceOnUse">
<stop stop-color="#4FD2CA"/>
<stop offset="1" stop-color="#0A9C93"/>
</linearGradient>
<clipPath id="clip0_1057_935">
<rect width="100" height="100" rx="50" fill="white"/>
</clipPath>
</defs>
</svg>
