<svg width="101" height="100" viewBox="0 0 101 100" fill="none" xmlns="http://www.w3.org/2000/svg">
<g clip-path="url(#clip0_1057_452)">
<circle cx="50.6667" cy="50" r="50" stroke="url(#paint0_linear_1057_452)" stroke-width="1.2"/>
<path d="M58.1335 41.0801L50.6001 37.0268C49.8001 36.6001 48.8535 36.6001 48.0535 37.0268L40.5335 41.0801C39.9868 41.3868 39.6401 41.9735 39.6401 42.6135C39.6401 43.2668 39.9735 43.8535 40.5335 44.1468L48.0668 48.2001C48.4668 48.4135 48.9068 48.5201 49.3335 48.5201C49.7601 48.5201 50.2135 48.4135 50.6001 48.2001L58.1335 44.1468C58.6801 43.8535 59.0268 43.2668 59.0268 42.6135C59.0268 41.9735 58.6801 41.3868 58.1335 41.0801Z" fill="url(#paint1_linear_1057_452)"/>
<path d="M46.8268 49.6135L39.8268 46.1201C39.2802 45.8401 38.6668 45.8801 38.1468 46.1868C37.6402 46.5068 37.3335 47.0535 37.3335 47.6535V54.2668C37.3335 55.4135 37.9735 56.4401 39.0002 56.9601L46.0002 60.4535C46.2402 60.5735 46.5068 60.6401 46.7735 60.6401C47.0802 60.6401 47.4002 60.5468 47.6802 60.3868C48.1868 60.0668 48.4935 59.5201 48.4935 58.9201V52.3068C48.4802 51.1601 47.8402 50.1335 46.8268 49.6135Z" fill="url(#paint2_linear_1057_452)"/>
<path d="M61.3334 47.6535V50.9335C60.6934 50.7468 60.0134 50.6668 59.3334 50.6668C57.5201 50.6668 55.7468 51.2935 54.3468 52.4135C52.4268 53.9201 51.3334 56.2001 51.3334 58.6668C51.3334 59.3201 51.4134 59.9735 51.5868 60.6001C51.3868 60.5735 51.1868 60.4935 51.0001 60.3735C50.4934 60.0668 50.1868 59.5201 50.1868 58.9201V52.3068C50.1868 51.1601 50.8268 50.1335 51.8401 49.6135L58.8401 46.1201C59.3868 45.8401 60.0001 45.8801 60.5201 46.1868C61.0268 46.5068 61.3334 47.0535 61.3334 47.6535Z" fill="url(#paint3_linear_1057_452)"/>
<path d="M63.9735 54.8667C62.8802 53.5201 61.2135 52.6667 59.3335 52.6667C57.9202 52.6667 56.6135 53.1601 55.5868 53.9867C54.2002 55.0801 53.3335 56.7734 53.3335 58.6667C53.3335 60.5467 54.1868 62.2134 55.5335 63.3067C56.5602 64.1601 57.8935 64.6667 59.3335 64.6667C60.8535 64.6667 62.2268 64.0934 63.2935 63.1734C64.5335 62.0667 65.3335 60.4667 65.3335 58.6667C65.3335 57.2267 64.8268 55.8934 63.9735 54.8667ZM60.7068 59.0401C60.7068 59.3867 60.5202 59.7201 60.2268 59.8934L58.3468 61.0134C58.1868 61.1067 58.0135 61.1601 57.8268 61.1601C57.4935 61.1601 57.1602 60.9867 56.9735 60.6801C56.6935 60.2001 56.8402 59.5867 57.3202 59.3067L58.7068 58.4801V56.8001C58.7068 56.2534 59.1602 55.8001 59.7068 55.8001C60.2535 55.8001 60.7068 56.2534 60.7068 56.8001V59.0401Z" fill="url(#paint4_linear_1057_452)"/>
</g>
<defs>
<linearGradient id="paint0_linear_1057_452" x1="0.666748" y1="50" x2="100.667" y2="50" gradientUnits="userSpaceOnUse">
<stop stop-color="#0A9C93" stop-opacity="0.4"/>
<stop offset="0.4" stop-color="#0A9C93" stop-opacity="0.02"/>
<stop offset="0.6" stop-color="#0A9C93" stop-opacity="0.02"/>
<stop offset="1" stop-color="#0A9C93" stop-opacity="0.4"/>
</linearGradient>
<linearGradient id="paint1_linear_1057_452" x1="49.3335" y1="36.7068" x2="49.3335" y2="48.5201" gradientUnits="userSpaceOnUse">
<stop stop-color="#4FD2CA"/>
<stop offset="1" stop-color="#0A9C93"/>
</linearGradient>
<linearGradient id="paint2_linear_1057_452" x1="42.9135" y1="45.9316" x2="42.9135" y2="60.6401" gradientUnits="userSpaceOnUse">
<stop stop-color="#4FD2CA"/>
<stop offset="1" stop-color="#0A9C93"/>
</linearGradient>
<linearGradient id="paint3_linear_1057_452" x1="55.7601" y1="45.9316" x2="55.7601" y2="60.6001" gradientUnits="userSpaceOnUse">
<stop stop-color="#4FD2CA"/>
<stop offset="1" stop-color="#0A9C93"/>
</linearGradient>
<linearGradient id="paint4_linear_1057_452" x1="59.3335" y1="52.6667" x2="59.3335" y2="64.6667" gradientUnits="userSpaceOnUse">
<stop stop-color="#4FD2CA"/>
<stop offset="1" stop-color="#0A9C93"/>
</linearGradient>
<clipPath id="clip0_1057_452">
<rect x="0.666748" width="100" height="100" rx="50" fill="white"/>
</clipPath>
</defs>
</svg>
